<svg xmlns="http://www.w3.org/2000/svg" version="1.1" xmlns:xlink="http://www.w3.org/1999/xlink" xmlns:svgjs="http://svgjs.dev/svgjs" width="150" height="150" viewBox="0 0 2000 1999"><g transform="matrix(1,0,0,1,-0.431486880466764,-0.4312711370263287)"><svg viewBox="0 0 343 343" data-background-color="#ffffff" preserveAspectRatio="xMidYMid meet" height="1999" width="2000" xmlns="http://www.w3.org/2000/svg" xmlns:xlink="http://www.w3.org/1999/xlink"><g id="tight-bounds" transform="matrix(1,0,0,1,0.0740000000000407,0.07400000000001228)"><svg viewBox="0 0 342.85155851775386 342.85155851775386" height="342.85155851775386" width="342.85155851775386"><g><svg></svg></g><g><svg viewBox="0 0 342.85155851775386 342.85155851775386" height="342.85155851775386" width="342.85155851775386"><g><path d="M0 171.426c0-94.676 76.75-171.426 171.426-171.426 94.676 0 171.426 76.75 171.426 171.426 0 94.676-76.75 171.426-171.426 171.426-94.676 0-171.426-76.75-171.426-171.426zM171.426 329.129c87.097 0 157.704-70.606 157.703-157.703 0-87.097-70.606-157.704-157.703-157.704-87.097 0-157.704 70.606-157.704 157.704 0 87.097 70.606 157.704 157.704 157.703z" data-fill-palette-color="tertiary" fill="#0063db" stroke="transparent"></path><ellipse rx="164.56874808852186" ry="164.56874808852186" cx="171.42577925887693" cy="171.42577925887693" fill="#0063db" stroke="transparent" stroke-width="0" fill-opacity="1" data-fill-palette-color="tertiary"></ellipse></g><g transform="matrix(1,0,0,1,64.84655864529837,95.34495132087817)"><svg viewBox="0 0 213.1584412271571 152.16165587599752" height="152.16165587599752" width="213.1584412271571"><g><svg viewBox="0 0 213.1584412271571 152.16165587599752" height="152.16165587599752" width="213.1584412271571"><g><svg viewBox="0 0 213.1584412271571 152.16165587599752" height="152.16165587599752" width="213.1584412271571"><g id="textblocktransform"><svg viewBox="0 0 213.1584412271571 152.16165587599752" height="152.16165587599752" width="213.1584412271571" id="textblock"><g><svg viewBox="0 0 213.1584412271571 152.16165587599752" height="152.16165587599752" width="213.1584412271571"><g transform="matrix(1,0,0,1,0,0)"><svg width="213.1584412271571" viewBox="3 -34.55 48.4 34.55" height="152.16165587599752" data-palette-color="#ffffff"><path d="M9.35 0L3 0 3-34.55 19.7-34.55 19-29.8 9.35-29.8 9.35-19.25 17.75-19.25 17.75-14.5 9.35-14.5 9.35 0ZM49.2-34.55L51.4 0 45.35 0 44.75-14.6Q44.45-22.6 44.45-26L44.45-26 44.5-28.6 39.75-3.8 33.75-3.8 28.8-28.65Q28.85-27.15 28.85-24.05L28.85-24.05Q28.85-18.8 28.65-14.4L28.65-14.4 28.1 0 22.15 0 24.35-34.55 32.35-34.55 36.85-10.2 41.05-34.55 49.2-34.55Z" opacity="1" transform="matrix(1,0,0,1,0,0)" fill="#ffffff" class="wordmark-text-0" data-fill-palette-color="quaternary" id="text-0"></path></svg></g></svg></g></svg></g></svg></g><g></g></svg></g></svg></g></svg></g><defs></defs></svg><rect width="342.85155851775386" height="342.85155851775386" fill="none" stroke="none" visibility="hidden"></rect></g></svg></g></svg>